# MagicaVoxel @ Ephtracy

# group
o 

# material
mtllib Chicken.mtl
usemtl palette

# normals
vn -1 0 0
vn 1 0 0
vn 0 0 1
vn 0 0 -1
vn 0 -1 0
vn 0 1 0

# texcoords
vt 0.0917969 0.5
vt 0.115234 0.5
vt 0.134766 0.5
vt 0.958984 0.5
vt 0.994141 0.5

# verts
v -0.4 0.1 0.3
v -0.4 0.1 -0.2
v -0.4 0.2 0.3
v -0.4 0.2 -0.2
v -0.4 0.4 0.1
v -0.4 0.4 -0.4
v -0.4 0.7 0.1
v -0.4 0.7 -0.4
v -0.3 0.2 0
v -0.3 0.2 -0.1
v -0.3 0.4 0.3
v -0.3 0.4 0.1
v -0.3 0.4 0
v -0.3 0.4 -0.1
v -0.3 0.4 -0.4
v -0.3 0.4 -0.5
v -0.3 0.7 0.1
v -0.3 0.7 -0.4
v -0.3 0.8 -0.2
v -0.3 0.8 -0.5
v -0.3 1.2 0.2
v -0.3 1.2 0.1
v -0.3 1.3 0.2
v -0.3 1.3 0.1
v -0.3 1.4 0.3
v -0.3 1.4 -0.2
v -0.2 0.1 0.3
v -0.2 0.1 0.1
v -0.2 0.2 0.3
v -0.2 0.2 0.1
v -0.2 0.7 -0.5
v -0.2 0.7 -0.6
v -0.2 0.8 -0.5
v -0.2 0.8 -0.6
v -0.1 0.6 -0.5
v -0.1 0.6 -0.6
v -0.1 0.7 -0.5
v -0.1 0.7 -0.6
v -0.1 0.9 0.4
v -0.1 0.9 0.3
v -0.1 1 0.5
v -0.1 1 0.4
v -0.1 1 0.3
v -0.1 1.2 0.5
v -0.1 1.2 0.3
v -0.1 1.4 0.3
v -0.1 1.4 -0.1
v -0.1 1.6 0.3
v -0.1 1.6 -0.1
v 0.1 0.1 0.3
v 0.1 0.1 -0.2
v 0.1 0.2 0.3
v 0.1 0.2 -0.2
v 0.2 0.2 0
v 0.2 0.2 -0.1
v 0.2 0.4 0
v 0.2 0.4 -0.1
v 0.3 0.1 0.3
v 0.3 0.1 0.1
v 0.3 0.2 0.3
v 0.3 0.2 0.1
v -0.3 0.1 0.3
v -0.3 0.1 0.1
v -0.3 0.2 0.3
v -0.3 0.2 0.1
v -0.2 0.2 0
v -0.2 0.2 -0.1
v -0.2 0.4 0
v -0.2 0.4 -0.1
v -0.1 0.1 0.3
v -0.1 0.1 -0.2
v -0.1 0.2 0.3
v -0.1 0.2 -0.2
v 0.1 0.6 -0.5
v 0.1 0.6 -0.6
v 0.1 0.7 -0.5
v 0.1 0.7 -0.6
v 0.1 0.9 0.4
v 0.1 0.9 0.3
v 0.1 1 0.5
v 0.1 1 0.4
v 0.1 1 0.3
v 0.1 1.2 0.5
v 0.1 1.2 0.3
v 0.1 1.4 0.3
v 0.1 1.4 -0.1
v 0.1 1.6 0.3
v 0.1 1.6 -0.1
v 0.2 0.1 0.3
v 0.2 0.1 0.1
v 0.2 0.2 0.3
v 0.2 0.2 0.1
v 0.2 0.7 -0.5
v 0.2 0.7 -0.6
v 0.2 0.8 -0.5
v 0.2 0.8 -0.6
v 0.3 0.2 0
v 0.3 0.2 -0.1
v 0.3 0.4 0.3
v 0.3 0.4 0.1
v 0.3 0.4 0
v 0.3 0.4 -0.1
v 0.3 0.4 -0.4
v 0.3 0.4 -0.5
v 0.3 0.7 0.1
v 0.3 0.7 -0.4
v 0.3 0.8 -0.2
v 0.3 0.8 -0.5
v 0.3 1.2 0.2
v 0.3 1.2 0.1
v 0.3 1.3 0.2
v 0.3 1.3 0.1
v 0.3 1.4 0.3
v 0.3 1.4 -0.2
v 0.4 0.1 0.3
v 0.4 0.1 -0.2
v 0.4 0.2 0.3
v 0.4 0.2 -0.2
v 0.4 0.4 0.1
v 0.4 0.4 -0.4
v 0.4 0.7 0.1
v 0.4 0.7 -0.4
v -0.1 1 0.5
v -0.1 1.2 0.5
v 0.1 1 0.5
v 0.1 1.2 0.5
v -0.1 0.9 0.4
v -0.1 1 0.4
v 0.1 0.9 0.4
v 0.1 1 0.4
v -0.4 0.1 0.3
v -0.4 0.2 0.3
v -0.3 0.1 0.3
v -0.3 0.2 0.3
v -0.3 0.4 0.3
v -0.3 1.4 0.3
v -0.2 0.1 0.3
v -0.2 0.2 0.3
v -0.1 0.1 0.3
v -0.1 0.2 0.3
v -0.1 0.9 0.3
v -0.1 1 0.3
v -0.1 1.2 0.3
v -0.1 1.4 0.3
v -0.1 1.6 0.3
v 0.1 0.1 0.3
v 0.1 0.2 0.3
v 0.1 0.9 0.3
v 0.1 1 0.3
v 0.1 1.2 0.3
v 0.1 1.4 0.3
v 0.1 1.6 0.3
v 0.2 0.1 0.3
v 0.2 0.2 0.3
v 0.3 0.1 0.3
v 0.3 0.2 0.3
v 0.3 0.4 0.3
v 0.3 1.4 0.3
v 0.4 0.1 0.3
v 0.4 0.2 0.3
v -0.4 0.4 0.1
v -0.4 0.7 0.1
v -0.3 0.1 0.1
v -0.3 0.2 0.1
v -0.3 0.4 0.1
v -0.3 0.7 0.1
v -0.2 0.1 0.1
v -0.2 0.2 0.1
v 0.2 0.1 0.1
v 0.2 0.2 0.1
v 0.3 0.1 0.1
v 0.3 0.2 0.1
v 0.3 0.4 0.1
v 0.3 0.7 0.1
v 0.4 0.4 0.1
v 0.4 0.7 0.1
v -0.3 0.2 0
v -0.3 0.4 0
v -0.2 0.2 0
v -0.2 0.4 0
v 0.2 0.2 0
v 0.2 0.4 0
v 0.3 0.2 0
v 0.3 0.4 0
v -0.3 0.2 -0.1
v -0.3 0.4 -0.1
v -0.2 0.2 -0.1
v -0.2 0.4 -0.1
v -0.1 1.4 -0.1
v -0.1 1.6 -0.1
v 0.1 1.4 -0.1
v 0.1 1.6 -0.1
v 0.2 0.2 -0.1
v 0.2 0.4 -0.1
v 0.3 0.2 -0.1
v 0.3 0.4 -0.1
v -0.4 0.1 -0.2
v -0.4 0.2 -0.2
v -0.3 0.8 -0.2
v -0.3 1.4 -0.2
v -0.1 0.1 -0.2
v -0.1 0.2 -0.2
v 0.1 0.1 -0.2
v 0.1 0.2 -0.2
v 0.3 0.8 -0.2
v 0.3 1.4 -0.2
v 0.4 0.1 -0.2
v 0.4 0.2 -0.2
v -0.4 0.4 -0.4
v -0.4 0.7 -0.4
v -0.3 0.4 -0.4
v -0.3 0.7 -0.4
v 0.3 0.4 -0.4
v 0.3 0.7 -0.4
v 0.4 0.4 -0.4
v 0.4 0.7 -0.4
v -0.3 0.4 -0.5
v -0.3 0.8 -0.5
v -0.2 0.7 -0.5
v -0.2 0.8 -0.5
v -0.1 0.6 -0.5
v -0.1 0.7 -0.5
v 0.1 0.6 -0.5
v 0.1 0.7 -0.5
v 0.2 0.7 -0.5
v 0.2 0.8 -0.5
v 0.3 0.4 -0.5
v 0.3 0.8 -0.5
v -0.2 0.7 -0.6
v -0.2 0.8 -0.6
v -0.1 0.6 -0.6
v -0.1 0.7 -0.6
v 0.1 0.6 -0.6
v 0.1 0.7 -0.6
v 0.2 0.7 -0.6
v 0.2 0.8 -0.6
v -0.4 0.1 0.3
v -0.3 0.1 0.3
v -0.2 0.1 0.3
v -0.1 0.1 0.3
v 0.1 0.1 0.3
v 0.2 0.1 0.3
v 0.3 0.1 0.3
v 0.4 0.1 0.3
v -0.3 0.1 0.1
v -0.2 0.1 0.1
v 0.2 0.1 0.1
v 0.3 0.1 0.1
v -0.4 0.1 -0.2
v -0.1 0.1 -0.2
v 0.1 0.1 -0.2
v 0.4 0.1 -0.2
v -0.3 0.4 0.3
v 0.3 0.4 0.3
v -0.4 0.4 0.1
v -0.3 0.4 0.1
v 0.3 0.4 0.1
v 0.4 0.4 0.1
v -0.3 0.4 0
v -0.2 0.4 0
v 0.2 0.4 0
v 0.3 0.4 0
v -0.3 0.4 -0.1
v -0.2 0.4 -0.1
v 0.2 0.4 -0.1
v 0.3 0.4 -0.1
v -0.4 0.4 -0.4
v -0.3 0.4 -0.4
v 0.3 0.4 -0.4
v 0.4 0.4 -0.4
v -0.3 0.4 -0.5
v 0.3 0.4 -0.5
v -0.1 0.6 -0.5
v 0.1 0.6 -0.5
v -0.1 0.6 -0.6
v 0.1 0.6 -0.6
v -0.2 0.7 -0.5
v -0.1 0.7 -0.5
v 0.1 0.7 -0.5
v 0.2 0.7 -0.5
v -0.2 0.7 -0.6
v -0.1 0.7 -0.6
v 0.1 0.7 -0.6
v 0.2 0.7 -0.6
v -0.1 0.9 0.4
v 0.1 0.9 0.4
v -0.1 0.9 0.3
v 0.1 0.9 0.3
v -0.1 1 0.5
v 0.1 1 0.5
v -0.1 1 0.4
v 0.1 1 0.4
v -0.4 0.2 0.3
v -0.3 0.2 0.3
v -0.2 0.2 0.3
v -0.1 0.2 0.3
v 0.1 0.2 0.3
v 0.2 0.2 0.3
v 0.3 0.2 0.3
v 0.4 0.2 0.3
v -0.3 0.2 0.1
v -0.2 0.2 0.1
v 0.2 0.2 0.1
v 0.3 0.2 0.1
v -0.3 0.2 0
v -0.2 0.2 0
v 0.2 0.2 0
v 0.3 0.2 0
v -0.3 0.2 -0.1
v -0.2 0.2 -0.1
v 0.2 0.2 -0.1
v 0.3 0.2 -0.1
v -0.4 0.2 -0.2
v -0.1 0.2 -0.2
v 0.1 0.2 -0.2
v 0.4 0.2 -0.2
v -0.4 0.7 0.1
v -0.3 0.7 0.1
v 0.3 0.7 0.1
v 0.4 0.7 0.1
v -0.4 0.7 -0.4
v -0.3 0.7 -0.4
v 0.3 0.7 -0.4
v 0.4 0.7 -0.4
v -0.3 0.8 -0.2
v 0.3 0.8 -0.2
v -0.3 0.8 -0.5
v -0.2 0.8 -0.5
v 0.2 0.8 -0.5
v 0.3 0.8 -0.5
v -0.2 0.8 -0.6
v 0.2 0.8 -0.6
v -0.1 1.2 0.5
v 0.1 1.2 0.5
v -0.1 1.2 0.3
v 0.1 1.2 0.3
v -0.3 1.4 0.3
v -0.1 1.4 0.3
v 0.1 1.4 0.3
v 0.3 1.4 0.3
v -0.1 1.4 -0.1
v 0.1 1.4 -0.1
v -0.3 1.4 -0.2
v 0.3 1.4 -0.2
v -0.1 1.6 0.3
v 0.1 1.6 0.3
v -0.1 1.6 -0.1
v 0.1 1.6 -0.1

# faces
f 3/1/1 2/1/1 1/1/1
f 4/1/1 2/1/1 3/1/1
f 7/4/1 6/4/1 5/4/1
f 8/4/1 6/4/1 7/4/1
f 13/1/1 10/1/1 9/1/1
f 14/1/1 10/1/1 13/1/1
f 17/4/1 12/4/1 11/4/1
f 18/4/1 16/4/1 15/4/1
f 19/4/1 18/4/1 17/4/1
f 20/4/1 16/4/1 18/4/1
f 20/4/1 18/4/1 19/4/1
f 21/4/1 17/4/1 11/4/1
f 21/4/1 19/4/1 17/4/1
f 22/4/1 19/4/1 21/4/1
f 23/4/1 21/4/1 11/4/1
f 23/5/1 22/5/1 21/5/1
f 24/4/1 19/4/1 22/4/1
f 24/5/1 22/5/1 23/5/1
f 25/4/1 23/4/1 11/4/1
f 25/4/1 24/4/1 23/4/1
f 26/4/1 19/4/1 24/4/1
f 26/4/1 24/4/1 25/4/1
f 29/1/1 28/1/1 27/1/1
f 30/1/1 28/1/1 29/1/1
f 33/4/1 32/4/1 31/4/1
f 34/4/1 32/4/1 33/4/1
f 37/4/1 36/4/1 35/4/1
f 38/4/1 36/4/1 37/4/1
f 42/2/1 40/2/1 39/2/1
f 43/2/1 40/2/1 42/2/1
f 44/1/1 42/1/1 41/1/1
f 44/1/1 43/1/1 42/1/1
f 45/1/1 43/1/1 44/1/1
f 48/3/1 47/3/1 46/3/1
f 49/3/1 47/3/1 48/3/1
f 52/1/1 51/1/1 50/1/1
f 53/1/1 51/1/1 52/1/1
f 56/1/1 55/1/1 54/1/1
f 57/1/1 55/1/1 56/1/1
f 60/1/1 59/1/1 58/1/1
f 61/1/1 59/1/1 60/1/1
f 62/1/2 63/1/2 64/1/2
f 64/1/2 63/1/2 65/1/2
f 66/1/2 67/1/2 68/1/2
f 68/1/2 67/1/2 69/1/2
f 70/1/2 71/1/2 72/1/2
f 72/1/2 71/1/2 73/1/2
f 74/4/2 75/4/2 76/4/2
f 76/4/2 75/4/2 77/4/2
f 78/2/2 79/2/2 81/2/2
f 81/2/2 79/2/2 82/2/2
f 80/1/2 81/1/2 83/1/2
f 81/1/2 82/1/2 83/1/2
f 83/1/2 82/1/2 84/1/2
f 85/3/2 86/3/2 87/3/2
f 87/3/2 86/3/2 88/3/2
f 89/1/2 90/1/2 91/1/2
f 91/1/2 90/1/2 92/1/2
f 93/4/2 94/4/2 95/4/2
f 95/4/2 94/4/2 96/4/2
f 97/1/2 98/1/2 101/1/2
f 101/1/2 98/1/2 102/1/2
f 99/4/2 100/4/2 105/4/2
f 103/4/2 104/4/2 106/4/2
f 105/4/2 106/4/2 107/4/2
f 106/4/2 104/4/2 108/4/2
f 107/4/2 106/4/2 108/4/2
f 99/4/2 105/4/2 109/4/2
f 105/4/2 107/4/2 109/4/2
f 109/4/2 107/4/2 110/4/2
f 99/4/2 109/4/2 111/4/2
f 109/5/2 110/5/2 111/5/2
f 110/4/2 107/4/2 112/4/2
f 111/5/2 110/5/2 112/5/2
f 99/4/2 111/4/2 113/4/2
f 111/4/2 112/4/2 113/4/2
f 112/4/2 107/4/2 114/4/2
f 113/4/2 112/4/2 114/4/2
f 115/1/2 116/1/2 117/1/2
f 117/1/2 116/1/2 118/1/2
f 119/4/2 120/4/2 121/4/2
f 121/4/2 120/4/2 122/4/2
f 125/1/3 124/1/3 123/1/3
f 126/1/3 124/1/3 125/1/3
f 129/2/3 128/2/3 127/2/3
f 130/2/3 128/2/3 129/2/3
f 133/1/3 132/1/3 131/1/3
f 134/1/3 132/1/3 133/1/3
f 139/1/3 138/1/3 137/1/3
f 140/1/3 138/1/3 139/1/3
f 141/4/3 136/4/3 135/4/3
f 142/4/3 136/4/3 141/4/3
f 143/4/3 136/4/3 142/4/3
f 144/4/3 136/4/3 143/4/3
f 148/4/3 141/4/3 135/4/3
f 150/4/3 144/4/3 143/4/3
f 151/3/3 145/3/3 144/3/3
f 151/4/3 144/4/3 150/4/3
f 152/3/3 145/3/3 151/3/3
f 153/1/3 147/1/3 146/1/3
f 154/1/3 147/1/3 153/1/3
f 157/4/3 150/4/3 149/4/3
f 157/4/3 149/4/3 148/4/3
f 157/4/3 148/4/3 135/4/3
f 157/4/3 151/4/3 150/4/3
f 158/4/3 151/4/3 157/4/3
f 159/1/3 156/1/3 155/1/3
f 160/1/3 156/1/3 159/1/3
f 165/4/3 162/4/3 161/4/3
f 166/4/3 162/4/3 165/4/3
f 167/1/3 164/1/3 163/1/3
f 168/1/3 164/1/3 167/1/3
f 171/1/3 170/1/3 169/1/3
f 172/1/3 170/1/3 171/1/3
f 175/4/3 174/4/3 173/4/3
f 176/4/3 174/4/3 175/4/3
f 179/1/3 178/1/3 177/1/3
f 180/1/3 178/1/3 179/1/3
f 183/1/3 182/1/3 181/1/3
f 184/1/3 182/1/3 183/1/3
f 185/1/4 186/1/4 187/1/4
f 187/1/4 186/1/4 188/1/4
f 189/3/4 190/3/4 191/3/4
f 191/3/4 190/3/4 192/3/4
f 193/1/4 194/1/4 195/1/4
f 195/1/4 194/1/4 196/1/4
f 197/1/4 198/1/4 201/1/4
f 201/1/4 198/1/4 202/1/4
f 199/4/4 200/4/4 205/4/4
f 205/4/4 200/4/4 206/4/4
f 203/1/4 204/1/4 207/1/4
f 207/1/4 204/1/4 208/1/4
f 209/4/4 210/4/4 211/4/4
f 211/4/4 210/4/4 212/4/4
f 213/4/4 214/4/4 215/4/4
f 215/4/4 214/4/4 216/4/4
f 217/4/4 218/4/4 219/4/4
f 219/4/4 218/4/4 220/4/4
f 217/4/4 219/4/4 221/4/4
f 221/4/4 219/4/4 222/4/4
f 217/4/4 221/4/4 223/4/4
f 223/4/4 224/4/4 225/4/4
f 223/4/4 225/4/4 227/4/4
f 225/4/4 226/4/4 227/4/4
f 217/4/4 223/4/4 227/4/4
f 227/4/4 226/4/4 228/4/4
f 229/4/4 230/4/4 232/4/4
f 231/4/4 232/4/4 233/4/4
f 232/4/4 230/4/4 234/4/4
f 233/4/4 232/4/4 234/4/4
f 234/4/4 230/4/4 235/4/4
f 235/4/4 230/4/4 236/4/4
f 245/1/5 238/1/5 237/1/5
f 246/1/5 240/1/5 239/1/5
f 247/1/5 242/1/5 241/1/5
f 248/1/5 244/1/5 243/1/5
f 249/1/5 245/1/5 237/1/5
f 249/1/5 246/1/5 245/1/5
f 250/1/5 240/1/5 246/1/5
f 250/1/5 246/1/5 249/1/5
f 251/1/5 247/1/5 241/1/5
f 251/1/5 248/1/5 247/1/5
f 252/1/5 244/1/5 248/1/5
f 252/1/5 248/1/5 251/1/5
f 256/4/5 254/4/5 253/4/5
f 257/4/5 254/4/5 256/4/5
f 259/4/5 256/4/5 255/4/5
f 259/4/5 258/4/5 257/4/5
f 259/4/5 257/4/5 256/4/5
f 260/4/5 258/4/5 259/4/5
f 261/4/5 258/4/5 260/4/5
f 262/4/5 258/4/5 261/4/5
f 263/4/5 259/4/5 255/4/5
f 264/4/5 261/4/5 260/4/5
f 265/4/5 261/4/5 264/4/5
f 266/4/5 258/4/5 262/4/5
f 267/4/5 265/4/5 264/4/5
f 267/4/5 266/4/5 265/4/5
f 267/4/5 263/4/5 255/4/5
f 267/4/5 264/4/5 263/4/5
f 268/4/5 266/4/5 267/4/5
f 269/4/5 258/4/5 266/4/5
f 269/4/5 266/4/5 268/4/5
f 270/4/5 258/4/5 269/4/5
f 271/4/5 269/4/5 268/4/5
f 272/4/5 269/4/5 271/4/5
f 275/4/5 274/4/5 273/4/5
f 276/4/5 274/4/5 275/4/5
f 281/4/5 278/4/5 277/4/5
f 282/4/5 278/4/5 281/4/5
f 283/4/5 280/4/5 279/4/5
f 284/4/5 280/4/5 283/4/5
f 287/2/5 286/2/5 285/2/5
f 288/2/5 286/2/5 287/2/5
f 291/1/5 290/1/5 289/1/5
f 292/1/5 290/1/5 291/1/5
f 293/1/6 294/1/6 301/1/6
f 295/1/6 296/1/6 302/1/6
f 297/1/6 298/1/6 303/1/6
f 299/1/6 300/1/6 304/1/6
f 293/1/6 301/1/6 305/1/6
f 301/1/6 302/1/6 305/1/6
f 302/1/6 296/1/6 306/1/6
f 305/1/6 302/1/6 306/1/6
f 297/1/6 303/1/6 307/1/6
f 303/1/6 304/1/6 307/1/6
f 304/1/6 300/1/6 308/1/6
f 307/1/6 304/1/6 308/1/6
f 293/1/6 305/1/6 309/1/6
f 306/1/6 296/1/6 310/1/6
f 297/1/6 307/1/6 311/1/6
f 308/1/6 300/1/6 312/1/6
f 293/1/6 309/1/6 313/1/6
f 309/1/6 310/1/6 313/1/6
f 310/1/6 296/1/6 314/1/6
f 313/1/6 310/1/6 314/1/6
f 311/1/6 312/1/6 315/1/6
f 297/1/6 311/1/6 315/1/6
f 312/1/6 300/1/6 316/1/6
f 315/1/6 312/1/6 316/1/6
f 317/4/6 318/4/6 321/4/6
f 321/4/6 318/4/6 322/4/6
f 319/4/6 320/4/6 323/4/6
f 323/4/6 320/4/6 324/4/6
f 325/4/6 326/4/6 327/4/6
f 327/4/6 326/4/6 328/4/6
f 328/4/6 326/4/6 329/4/6
f 329/4/6 326/4/6 330/4/6
f 328/4/6 329/4/6 331/4/6
f 331/4/6 329/4/6 332/4/6
f 333/1/6 334/1/6 335/1/6
f 335/1/6 334/1/6 336/1/6
f 337/4/6 338/4/6 341/4/6
f 339/4/6 340/4/6 342/4/6
f 337/4/6 341/4/6 343/4/6
f 341/4/6 342/4/6 343/4/6
f 342/4/6 340/4/6 344/4/6
f 343/4/6 342/4/6 344/4/6
f 345/3/6 346/3/6 347/3/6
f 347/3/6 346/3/6 348/3/6
